{
  "accessors": [
    {
      "bufferView": 2,
      "componentType": 5126,
      "count": 2958,
      "max": [
        99.324028015136719,
        99.324028015136719,
        99.324028015136719
      ],
      "min": [
        -99.324028015136719,
        -99.324028015136719,
        -99.324028015136719
      ],
      "type": "VEC3"
    },
    {
      "bufferView": 2,
      "byteOffset": 35496,
      "componentType": 5126,
      "count": 2958,
      "max": [
        0.99629729986190796,
        0.99629729986190796,
        0.99629729986190796
      ],
      "min": [
        -0.99629729986190796,
        -0.99629729986190796,
        -0.99629729986190796
      ],
      "type": "VEC3"
    },
    {
      "bufferView": 1,
      "componentType": 5126,
      "count": 2958,
      "max": [
        1.2331340312957764,
        0.98491954803466797
      ],
      "min": [
        0,
        0.015080451965332031
      ],
      "type": "VEC2"
    },
    {
      "bufferView": 1,
      "byteOffset": 23664,
      "componentType": 5126,
      "count": 2958,
      "max": [
        1.2331340312957764,
        0.98491954803466797
      ],
      "min": [
        0,
        0.015080451965332031
      ],
      "type": "VEC2"
    },
    {
      "bufferView": 0,
      "componentType": 5125,
      "count": 5868,
      "max": [
        2957
      ],
      "min": [
        0
      ],
      "type": "SCALAR"
    },
    {
      "bufferView": 2,
      "byteOffset": 70992,
      "componentType": 5126,
      "count": 3976,
      "max": [
        99.367530822753906,
        99.367530822753906,
        99.367530822753906
      ],
      "min": [
        -99.367530822753906,
        -99.367530822753906,
        -99.367530822753906
      ],
      "type": "VEC3"
    },
    {
      "bufferView": 2,
      "byteOffset": 118704,
      "componentType": 5126,
      "count": 3976,
      "max": [
        0.99857819080352783,
        0.99857819080352783,
        0.99857819080352783
      ],
      "min": [
        -0.99857819080352783,
        -0.99857819080352783,
        -0.99857819080352783
      ],
      "type": "VEC3"
    },
    {
      "bufferView": 1,
      "byteOffset": 47328,
      "componentType": 5126,
      "count": 3976,
      "max": [
        1.2668659687042236,
        0.98491954803466797
      ],
      "min": [
        0,
        0.015080451965332031
      ],
      "type": "VEC2"
    },
    {
      "bufferView": 1,
      "byteOffset": 79136,
      "componentType": 5126,
      "count": 3976,
      "max": [
        1.2668659687042236,
        0.98491954803466797
      ],
      "min": [
        0,
        0.015080451965332031
      ],
      "type": "VEC2"
    },
    {
      "bufferView": 0,
      "byteOffset": 23472,
      "componentType": 5125,
      "count": 17640,
      "max": [
        3975
      ],
      "min": [
        0
      ],
      "type": "SCALAR"
    }
  ],
  "asset": {
    "extras": {
      "author": "Adamante (https://sketchfab.com/Adamant6686)",
      "license": "CC-BY-4.0 (http://creativecommons.org/licenses/by/4.0/)",
      "source": "https://sketchfab.com/3d-models/spherical-hex-force-field-bb80cd68b5a74bd989cb18c186192c9b",
      "title": "Spherical hex force field"
    },
    "generator": "Sketchfab-9.35.0",
    "version": "2.0"
  },
  "bufferViews": [
    {
      "buffer": 0,
      "byteLength": 94032,
      "byteOffset": 0,
      "name": "floatBufferViews",
      "target": 34963
    },
    {
      "buffer": 0,
      "byteLength": 110944,
      "byteOffset": 94032,
      "byteStride": 8,
      "name": "floatBufferViews",
      "target": 34962
    },
    {
      "buffer": 0,
      "byteLength": 166416,
      "byteOffset": 204976,
      "byteStride": 12,
      "name": "floatBufferViews",
      "target": 34962
    }
  ],
  "buffers": [
    {
      "byteLength": 371392,
      "uri": "scene.bin"
    }
  ],
  "materials": [
    {
      "alphaMode": "BLEND",
      "doubleSided": true,
      "emissiveFactor": [
        0,
        0.054934824994824993,
        0.054363397570647398
      ],
      "name": "material",
      "pbrMetallicRoughness": {
        "baseColorFactor": [
          0,
          0.68668531243531239,
          0.67954246963309251,
          0.66929875533119843
        ],
        "metallicFactor": 0,
        "roughnessFactor": 0
      }
    },
    {
      "doubleSided": true,
      "emissiveFactor": [
        1,
        1,
        1
      ],
      "name": "material_1",
      "pbrMetallicRoughness": {
        "baseColorFactor": [
          1,
          1,
          1,
          1
        ],
        "metallicFactor": 0,
        "roughnessFactor": 0.59999999999999998
      }
    }
  ],
  "meshes": [
    {
      "name": "Sphere_6_M_0",
      "primitives": [
        {
          "attributes": {
            "NORMAL": 1,
            "POSITION": 0,
            "TEXCOORD_0": 2,
            "TEXCOORD_1": 3
          },
          "indices": 4,
          "material": 0,
          "mode": 4
        }
      ]
    },
    {
      "name": "Sphere_6_A_1",
      "primitives": [
        {
          "attributes": {
            "NORMAL": 6,
            "POSITION": 5,
            "TEXCOORD_0": 7,
            "TEXCOORD_1": 8
          },
          "indices": 9,
          "material": 1,
          "mode": 4
        }
      ]
    }
  ],
  "nodes": [
    {
      "children": [
        1
      ],
      "name": "RootNode (gltf orientation matrix)",
      "rotation": [
        -0.70710678118654746,
        -0,
        -0,
        0.70710678118654757
      ]
    },
    {
      "children": [
        2
      ],
      "name": "RootNode (model correction matrix)"
    },
    {
      "children": [
        3
      ],
      "matrix": [
        1,
        0,
        0,
        0,
        0,
        0,
        1,
        0,
        0,
        -1,
        0,
        0,
        0,
        0,
        0,
        1
      ],
      "name": "bd247889026e45a8ae3c7b8b99d3aae2.fbx"
    },
    {
      "children": [
        4,
        6
      ],
      "name": "RootNode"
    },
    {
      "children": [
        5
      ],
      "matrix": [
        -0.67251970844615405,
        -0.33675704947185237,
        -0.65902346800589151,
        0,
        -0.24052440496845873,
        0.94159157262106608,
        -0.23569752010480829,
        0,
        0.69990374507218411,
        -2.7755575615628914e-17,
        -0.71423717883762627,
        0,
        8307.8427734375,
        3486.796875,
        4515.4375,
        1
      ],
      "name": "CINEMA_4D_Editor"
    },
    {
      "name": ""
    },
    {
      "children": [
        7,
        8
      ],
      "name": "Sphere_6"
    },
    {
      "mesh": 0,
      "name": "Sphere_6_M_0"
    },
    {
      "mesh": 1,
      "name": "Sphere_6_A_1"
    }
  ],
  "scene": 0,
  "scenes": [
    {
      "name": "OSG_Scene",
      "nodes": [
        0
      ]
    }
  ]
}

